#!OML:ASF H:\Terrain\Patient Classification 1\Terrain2\Thursday\justin.ASF
:FULLY-SPECIFIED
:DEGREES
418
root 9.01568 17.743 16.8386 0.230539 -4.06023 -1.14594
lowerback 4.88507 1.00539 2.09379
upperback 0.855745 1.47677 1.47358
thorax -1.84425 0.727089 0.245149
lowerneck -15.8472 -2.61534 -8.11295
upperneck 21.1561 -2.8502 5.56048
head 9.49335 -1.36487 2.92016
rclavicle 1.0312e-014 7.95139e-016
rhumerus -31.1388 -9.09205 -78.8481
rradius 38.6821
rwrist -10.2975
rhand -19.2187 10.9482
rfingers 7.12502
rthumb 7.09404 -18.9129
lclavicle 1.0312e-014 7.95139e-016
lhumerus -40.5723 21.13 72.3356
lradius 16.9113
lwrist -14.9138
lhand -10.721 25.6743
lfingers 7.12502
lthumb 15.2893 55.0892
rfemur 3.00451 -3.15696 20.4502
rtibia 49.8909
rfoot 16.9844 7.16141
rtoes 3.8456
lfemur -20.058 6.1677 -21.7627
ltibia 25.8809
lfoot -5.79018 -9.33841
ltoes 8.02089
419
root 9.03701 17.7814 16.9948 0.110711 -4.35407 -0.504249
lowerback 4.757 1.033 1.52013
upperback 0.914474 1.47638 1.31963
thorax -1.72275 0.730871 0.41137
lowerneck -15.9321 -2.62406 -8.27947
upperneck 21.2649 -2.81861 5.57523
head 9.54811 -1.36204 2.95889
rclavicle 2.36057e-015 1.19271e-015
rhumerus -31.4007 -9.16635 -78.7218
rradius 38.2775
rwrist -9.45542
rhand -18.8187 9.77991
rfingers 7.12502
rthumb 7.48015 -20.0678
lclavicle 2.36057e-015 1.19271e-015
lhumerus -40.1617 20.0885 73.3244
lradius 17.5626
lwrist -13.7033
lhand -10.9544 25.3459
lfingers 7.12502
lthumb 15.0644 54.7777
rfemur 1.20685 -2.84558 19.5492
rtibia 52.7435
rfoot 19.1745 7.02971
rtoes 4.38606
lfemur -18.8637 6.1125 -22.4996
ltibia 24.9747
lfoot -5.86461 -8.94825
ltoes 8.47128
420
root 9.05383 17.808 17.1369 0.0447692 -4.74467 -0.0213132
lowerback 4.73229 1.09586 1.09072
upperback 0.918212 1.53542 1.17741
thorax -1.71227 0.762361 0.50278
lowerneck -16.0393 -2.65196 -8.32187
upperneck 21.4446 -2.82642 5.50567
head 9.63205 -1.37736 2.94299
rclavicle 2.85753e-015 -1.19271e-015
rhumerus -31.6248 -8.93207 -78.7729
rradius 37.5786
rwrist -9.39138
rhand -19.0151 9.56201
rfingers 7.12502
rthumb 7.29055 -20.2924
lclavicle 2.85753e-015 -1.19271e-015
lhumerus -39.6843 18.5026 74.5168
lradius 18.147
lwrist -12.011
lhand -11.6975 24.6042
lfingers 7.12502
lthumb 14.3485 54.0883
rfemur -0.654063 -2.22997 18.9706
rtibia 55.5519
rfoot 21.2397 5.5863
rtoes 7.70026
lfemur -17.6993 6.27316 -23.0344
ltibia 23.8713
lfoot -5.88494 -8.66155
ltoes 8.90787
421
root 9.0635 17.8392 17.2793 -0.124923 -5.04914 0.544561
lowerback 4.86801 1.08961 0.466643
upperback 0.890545 1.495 1.01948
thorax -1.82823 0.744989 0.689649
lowerneck -16.1774 -2.55892 -8.22165
upperneck 21.6583 -2.69858 5.42452
head 9.72047 -1.31948 2.91757
rclavicle -6.68413e-015 8.74653e-015
rhumerus -31.6868 -8.62321 -78.9989
rradius 36.4453
rwrist -9.45628
rhand -18.4305 10.2046
rfingers 7.12502
rthumb 7.8548 -19.6295
lclavicle -6.68413e-015 8.74653e-015
lhumerus -39.3913 17.3017 75.2901
lradius 18.722
lwrist -10.5569
lhand -11.6018 24.5688
lfingers 7.12502
lthumb 14.4407 54.0464
rfemur -2.31555 -1.6512 18.3365
rtibia 58.2501
rfoot 22.5967 3.89816
rtoes 10.903
lfemur -16.4694 6.755 -23.6593
ltibia 22.7723
lfoot -5.91797 -8.90431
ltoes 8.5673
422
root 9.07351 17.8624 17.4267 -0.450533 -5.01352 1.21785
lowerback 5.07147 0.963897 -0.23809
upperback 0.923524 1.28809 0.850302
thorax -1.91774 0.645515 0.921073
lowerneck -16.2961 -2.40563 -8.05443
upperneck 21.8029 -2.46932 5.2041
head 9.77107 -1.22449 2.84409
rclavicle 1.44119e-014 1.07344e-014
rhumerus -31.7466 -7.93997 -79.3598
rradius 35.3904
rwrist -10.4361
rhand -18.3219 10.9395
rfingers 7.12502
rthumb 7.95965 -18.8907
lclavicle 1.44119e-014 1.07344e-014
lhumerus -39.1371 16.3685 75.9105
lradius 19.4019
lwrist -9.31519
lhand -11.4755 24.3475
lfingers 7.12502
lthumb 14.5623 53.8164
rfemur -3.73725 -1.3777 17.5337
rtibia 60.8384
rfoot 21.8366 2.60261
rtoes 9.59698
lfemur -15.0188 7.37484 -24.4337
ltibia 21.6314
lfoot -5.7389 -9.5269
ltoes 9.44086
423
root 9.08235 17.8709 17.5689 -0.730894 -4.84861 1.87819
lowerback 5.1498 0.844678 -0.889597
upperback 1.00341 1.0902 0.682416
thorax -1.88458 0.549757 1.12694
lowerneck -16.3072 -2.3609 -8.12184
upperneck 21.8278 -2.38171 5.17735
head 9.7762 -1.19287 2.85798
rclavicle 4.22417e-016 -5.96354e-015
rhumerus -31.8172 -7.17768 -79.6319
rradius 34.676
rwrist -11.2248
rhand -19.5295 9.69863
rfingers 7.12502
rthumb 6.79406 -20.1724
lclavicle 4.22417e-016 -5.96354e-015
lhumerus -38.7519 14.9075 76.9131
lradius 20.2046
lwrist -7.39352
lhand -11.8463 23.9743
lfingers 7.12502
lthumb 14.2051 53.4685
rfemur -5.21838 -1.33828 16.7179
rtibia 63.3571
rfoot 20.9176 1.67835
rtoes 10.6581
lfemur -13.5804 7.76918 -25.1447
ltibia 20.4017
lfoot -5.39741 -10.0906
ltoes 11.6963
424
root 9.08828 17.8805 17.7077 -0.966408 -4.66225 2.60608
lowerback 5.20132 0.717935 -1.69644
upperback 1.09846 0.874016 0.52503
thorax -1.8193 0.444729 1.43281
lowerneck -16.5401 -2.34868 -8.20615
upperneck 21.9567 -2.3394 5.23321
head 9.86428 -1.17276 2.89955
rclavicle -1.87603e-014 -5.1684e-015
rhumerus -31.6864 -6.89489 -79.703
rradius 33.8588
rwrist -10.6794
rhand -20.0704 8.60538
rfingers 7.12502
rthumb 6.27181 -21.2818
lclavicle -1.87603e-014 -5.1684e-015
lhumerus -38.407 13.6431 77.8227
lradius 21.0872
lwrist -5.9105
lhand -12.4138 23.7177
lfingers 7.12502
lthumb 13.6582 53.2495
rfemur -6.78886 -1.75244 15.7909
rtibia 65.7737
rfoot 19.0395 1.99473
rtoes 8.19517
lfemur -12.278 8.17578 -25.8979
ltibia 19.2697
lfoot -5.18336 -10.8079
ltoes 12.9823
425
root 9.0944 17.894 17.8483 -1.1498 -4.375 3.32447
lowerback 5.2686 0.546436 -2.50096
upperback 1.08615 0.596378 0.343082
thorax -1.865 0.310497 1.71575
lowerneck -16.6466 -2.28083 -8.03864
upperneck 22.1442 -2.24926 5.08155
head 9.94029 -1.13552 2.83269
rclavicle 7.50412e-015 -1.98785e-015
rhumerus -31.5382 -7.30798 -79.6475
rradius 32.4605
rwrist -9.36371
rhand -19.4234 10.1095
rfingers 7.12502
rthumb 6.89647 -19.7582
lclavicle 7.50412e-015 -1.98785e-015
lhumerus -38.3264 12.7366 78.3402
lradius 22.0796
lwrist -5.46586
lhand -12.7896 23.4185
lfingers 7.12502
lthumb 13.296 52.9744
rfemur -8.37877 -2.38795 14.8746
rtibia 68.0632
rfoot 17.0833 2.28668
rtoes 7.22956
lfemur -11.1745 9.60678 -26.684
ltibia 18.3452
lfoot -4.92448 -12.6031
ltoes 14.1561
426
root 9.09744 17.9068 17.9877 -1.18991 -4.08352 3.64752
lowerback 5.24927 0.345259 -2.93995
upperback 0.970247 0.301837 0.268662
thorax -1.96086 0.168469 1.90579
lowerneck -16.5999 -2.18951 -7.88363
upperneck 22.3906 -2.1314 4.90749
head 10.0069 -1.0918 2.76472
rclavicle 8.3738e-015 -3.18055e-015
rhumerus -31.6286 -7.894 -79.5233
rradius 31.1045
rwrist -7.93208
rhand -18.6696 11.2279
rfingers 7.12502
rthumb 7.62403 -18.6147
lclavicle 8.3738e-015 -3.18055e-015
lhumerus -38.3857 11.9315 78.6675
lradius 23.1212
lwrist -5.20312
lhand -12.7391 23.3475
lfingers 7.12502
lthumb 13.3447 52.9002
rfemur -9.9592 -2.71902 14.5512
rtibia 70.1377
rfoot 14.9067 1.97855
rtoes 6.41194
lfemur -10.2944 10.8904 -27.0032
ltibia 17.5611
lfoot -4.50692 -14.2465
ltoes 16.5522
427
root 9.09756 17.922 18.1231 -1.13283 -3.67167 3.53282
lowerback 5.24259 0.0838606 -2.97977
upperback 0.82808 -0.0476788 0.379018
thorax -2.08412 -0.0016993 2.06606
lowerneck -16.5803 -2.08391 -7.93623
upperneck 22.639 -1.96388 4.85657
head 10.0801 -1.02857 2.78233
rclavicle -5.71506e-015 -7.95139e-016
rhumerus -32.0399 -7.72049 -79.4487
rradius 30.5664
rwrist -6.9792
rhand -18.1233 10.9059
rfingers 7.12502
rthumb 8.15132 -18.9168
lclavicle -5.71506e-015 -7.95139e-016
lhumerus -38.415 11.3545 79.0045
lradius 24.0836
lwrist -4.67658
lhand -12.7691 23.434
lfingers 7.12502
lthumb 13.3158 52.9886
rfemur -11.6203 -2.91807 14.8233
rtibia 71.9777
rfoot 12.6538 0.99403
rtoes 4.46783
lfemur -9.46006 10.4546 -26.817
ltibia 16.9158
lfoot -4.58944 -14.2537
ltoes 16.4744
428
root 9.1007 17.9347 18.2579 -1.13801 -3.18437 3.49056
lowerback 5.24917 -0.124464 -2.99237
upperback 0.785617 -0.325 0.44661
thorax -2.11498 -0.138682 2.16217
lowerneck -16.5338 -2.06607 -8.10681
upperneck 22.611 -1.92136 4.96076
head 10.0611 -1.01185 2.85352
rclavicle 5.69021e-015 1.11319e-014
rhumerus -32.3493 -7.58702 -79.3264
rradius 30.0558
rwrist -6.14767
rhand -17.7811 10.8151
rfingers 7.12502
rthumb 8.48156 -18.9946
lclavicle 5.69021e-015 1.11319e-014
lhumerus -38.1955 10.524 79.5675
lradius 24.9244
lwrist -3.51723
lhand -13.9163 23.2101
lfingers 7.12502
lthumb 12.2098 52.8337
rfemur -13.2218 -3.45477 14.8486
rtibia 73.5585
rfoot 10.7501 -0.165611
rtoes 3.05119
lfemur -8.56224 9.80417 -26.7288
ltibia 16.352
lfoot -4.97544 -14.0805
ltoes 14.7826
429
root 9.10605 17.9432 18.3912 -1.17292 -2.79677 3.61952
lowerback 5.23121 -0.239979 -3.12804
upperback 0.830687 -0.485213 0.447844
thorax -2.0478 -0.219267 2.25034
lowerneck -16.8103 -2.13249 -8.22412
upperneck 22.6599 -1.97472 5.02264
head 10.1373 -1.03691 2.88919
rclavicle 5.66536e-015 5.56597e-015
rhumerus -32.2798 -7.90568 -79.0874
rradius 28.9751
rwrist -5.31221
rhand -17.8125 11.083
rfingers 7.12502
rthumb 8.45124 -18.7279
lclavicle 5.66536e-015 5.56597e-015
lhumerus -37.6797 9.55142 80.225
lradius 25.5362
lwrist -2.09328
lhand -15.6164 22.6228
lfingers 7.12502
lthumb 10.5702 52.3369
rfemur -14.6217 -4.18826 14.594
rtibia 74.8413
rfoot 9.66811 -0.741634
rtoes 3.1045
lfemur -7.71633 9.69101 -26.835
ltibia 15.8106
lfoot -5.2265 -14.3408
ltoes 14.3815
430
root 9.10719 17.9616 18.5228 -1.1589 -2.39867 3.44256
lowerback 5.31015 -0.425544 -3.10379
upperback 0.764647 -0.730593 0.614276
thorax -2.14288 -0.338863 2.42649
lowerneck -17.0925 -2.11679 -8.32823
upperneck 22.9703 -1.89501 4.98133
head 10.2982 -1.01548 2.9088
rclavicle 5.06901e-015 -1.59028e-015
rhumerus -32.2926 -8.00916 -78.8291
rradius 27.8741
rwrist -4.76897
rhand -18.016 11.4087
rfingers 7.12502
rthumb 8.25487 -18.41
lclavicle 5.06901e-015 -1.59028e-015
lhumerus -37.4185 9.09021 80.6468
lradius 26.1992
lwrist -1.26768
lhand -16.3537 22.3201
lfingers 7.12502
lthumb 9.85888 52.0693
rfemur -15.9997 -4.66522 14.8403
rtibia 75.865
rfoot 8.822 -1.49176
rtoes 3.89201
lfemur -6.97171 9.51883 -26.5959
ltibia 15.3538
lfoot -5.39796 -14.4847
ltoes 14.7039
431
root 9.10829 17.9645 18.6581 -1.21776 -1.89633 3.54848
lowerback 5.37058 -0.669926 -3.39747
upperback 0.696363 -1.07368 0.712213
thorax -2.21751 -0.505008 2.71812
lowerneck -16.983 -2.06578 -8.37714
upperneck 23.0266 -1.78228 4.83334
head 10.2891 -0.98773 2.88021
rclavicle 2.36057e-015 -3.18055e-015
rhumerus -32.398 -8.0967 -78.5612
rradius 26.8168
rwrist -4.48075
rhand -18.4671 11.7174
rfingers 7.12502
rthumb 7.81955 -18.118
lclavicle 2.36057e-015 -3.18055e-015
lhumerus -37.3951 8.7943 80.9319
lradius 27.1966
lwrist -0.653533
lhand -16.3521 22.4796
lfingers 7.12502
lthumb 9.86052 52.2287
rfemur -17.3629 -5.02062 14.7497
rtibia 76.7729
rfoot 7.55686 -2.68437
rtoes 4.87944
lfemur -6.25238 9.33432 -26.6691
ltibia 15.0817
lfoot -5.53103 -14.7132
ltoes 15.1669
432
root 9.11597 17.9492 18.7902 -1.29042 -1.37431 4.01442
lowerback 5.38101 -0.875329 -3.88294
upperback 0.702924 -1.37825 0.616347
thorax -2.18559 -0.653963 2.91315
lowerneck -16.8877 -2.09088 -8.30429
upperneck 22.9134 -1.79815 4.65272
head 10.2296 -1.0094 2.79857
rclavicle 5.46658e-015 7.95139e-016
rhumerus -32.3709 -8.42331 -78.3429
rradius 25.6559
rwrist -4.35251
rhand -19.0407 11.3879
rfingers 7.12502
rthumb 7.26587 -18.4674
lclavicle 5.46658e-015 7.95139e-016
lhumerus -37.1545 8.18494 81.2561
lradius 28.2125
lwrist 0.225853
lhand -16.0595 22.759
lfingers 7.12502
lthumb 10.1428 52.4945
rfemur -18.7609 -5.56853 14.142
rtibia 77.6329
rfoot 6.15225 -3.63621
rtoes 4.14305
lfemur -5.67446 9.26874 -27.1715
ltibia 15.0174
lfoot -5.67867 -15.1342
ltoes 15.3379
